<svg class="logo-img" viewBox="0 0 504.2 504.2"><style>.st1{fill:#fff}.st3{font-family:&apos;GothamPro&apos;}.st4{font-size:230px}</style><circle cx="252.1" cy="252.1" r="252.1" fill="#5f7432"/><path class="st1" d="M7.9 367.1h488.4c0 38.6-31.5 70.1-70.1 70.1H78c-38.6 0-70.1-30.8-70.1-70.1z"/><path d="M426.1 445H78c-43.3 0-78-34.7-78-78 0-4.7 3.2-7.9 7.9-7.9h488.4c4.7 0 7.9 3.2 7.9 7.9-.1 43.4-34.7 78-78.1 78zM16.5 374.9c3.9 30.7 29.9 54.4 61.4 54.4h348.2c31.5 0 57.5-23.6 61.4-54.4h-471z"/><path d="M55.1 70.1H449c13.4 0 23.6 10.2 23.6 23.6V367H31.5V93.7c0-12.6 11-23.6 23.6-23.6z" fill="#e2edd9"/><path d="M472.6 374.9H31.5c-4.7 0-7.9-3.2-7.9-7.9V93.7c0-17.3 14.2-31.5 31.5-31.5H449c17.3 0 31.5 14.2 31.5 31.5V367c0 4.8-3.9 7.9-7.9 7.9zM39.4 359.2h425.4V93.7c0-8.7-7.1-15.8-15.8-15.8H55.1c-8.7 0-15.8 7.1-15.8 15.8l.1 265.5z"/><path class="st1" d="M63.2 102.2h378.1v233.9H63.2z"/><path d="M200.1 394.6h15.8v15.8h-15.8zm44.1 0H260v15.8h-15.8zm44.1 0h15.8v15.8h-15.8z"/><text transform="translate(95.762 310.26)" class="st3 st4">A</text><text transform="translate(236.891 310.822)" class="st3 st4">C</text></svg>