<svg width="40" height="40" fill="none" xmlns="http://www.w3.org/2000/svg"><circle cx="20" cy="20" r="20" fill="#AFBEA1"/><path opacity=".5" d="M40 20C40 8.97 31.03 0 20 0S0 8.97 0 20s8.97 20 20 20 20-8.97 20-20zM1.618 20C1.618 9.861 9.86 1.618 20 1.618 30.139 1.618 38.382 9.86 38.382 20c0 10.139-8.243 18.382-18.382 18.382C9.861 38.382 1.618 30.14 1.618 20z" fill="#000"/><path opacity=".5" d="M26.642 22.843a.818.818 0 0 0 .237-.572.817.817 0 0 0-.237-.572l-6.07-6.07a.804.804 0 0 0-.572-.237.804.804 0 0 0-.572.237l-6.07 6.07a.804.804 0 0 0 0 1.144.804.804 0 0 0 1.143 0L20 17.345l5.498 5.498a.82.82 0 0 0 1.144 0z" fill="#000"/></svg>