<svg width="35" height="35" fill="none" xmlns="http://www.w3.org/2000/svg"><g opacity=".3"><path d="M35 17.5C35 7.85 27.15 0 17.5 0S0 7.85 0 17.5 7.85 35 17.5 35 35 27.15 35 17.5zm-33.585 0c0-8.872 7.213-16.085 16.085-16.085S33.585 8.628 33.585 17.5 26.372 33.585 17.5 33.585 1.415 26.372 1.415 17.5z" fill="#2C2F33"/><path d="M23.312 19.988a.716.716 0 0 0 .207-.5.716.716 0 0 0-.207-.501L18 13.675a.703.703 0 0 0-.5-.207.703.703 0 0 0-.5.207l-5.312 5.312a.703.703 0 0 0 0 1 .703.703 0 0 0 1 0l4.812-4.81 4.81 4.81a.716.716 0 0 0 1.002 0z" fill="#000"/></g></svg>